<?xml version="1.0" encoding="UTF-8" standalone="no"?>
<!-- Created with Inkscape (http://www.inkscape.org/) -->

<svg
   width="73.95636mm"
   height="100.02814mm"
   viewBox="0 0 73.95636 100.02814"
   version="1.1"
   id="svg5"
   xml:space="preserve"
   sodipodi:docname="alien_silhouette.svg"
   inkscape:version="1.2.1 (9c6d41e410, 2022-07-14)"
   xmlns:inkscape="http://www.inkscape.org/namespaces/inkscape"
   xmlns:sodipodi="http://sodipodi.sourceforge.net/DTD/sodipodi-0.dtd"
   xmlns="http://www.w3.org/2000/svg"
   xmlns:svg="http://www.w3.org/2000/svg"><sodipodi:namedview
     id="namedview7"
     pagecolor="#ffffff"
     bordercolor="#666666"
     borderopacity="1.0"
     inkscape:showpageshadow="2"
     inkscape:pageopacity="0.0"
     inkscape:pagecheckerboard="0"
     inkscape:deskcolor="#d1d1d1"
     inkscape:document-units="mm"
     showgrid="false"
     inkscape:zoom="5.17549"
     inkscape:cx="127.91059"
     inkscape:cy="218.62664"
     inkscape:current-layer="layer1" /><defs
     id="defs2" /><g
     inkscape:label="Layer 1"
     inkscape:groupmode="layer"
     id="layer1"
     transform="translate(-65.254034,-79.821853)"><path
       style="fill:#000000;stroke-width:0.0962424"
       d="M 100.98994,179.70715 C 93.086177,178.49716 86.0468,172.26593 76.694605,158.20099 67.526734,144.41325 64.764209,136.39468 65.322752,125.19275 66.79397,95.686565 79.79315,79.814615 102.48169,79.821855 c 20.19584,0.0059 33.92292,13.07416 36.13498,34.399265 1.85051,17.83947 -0.45012,28.3139 -9.37454,42.68116 -10.21415,16.44354 -19.71427,24.11195 -28.25219,22.80487 z m -2.535201,-22.46798 c -2.876436,-12.42194 -9.556014,-19.83881 -21.350768,-23.70747 -1.830791,-0.60049 -5.79158,-1.60199 -6.335655,-1.60199 -0.431725,0 0.999282,5.96129 2.090461,8.70843 3.865143,9.73088 12.881507,15.96996 24.131404,16.69829 1.385888,0.0897 1.506011,0.0817 1.464558,-0.0972 z m 10.208691,-0.37311 c 12.42354,-1.98372 22.68595,-11.88389 25.4307,-24.53306 l 0.0691,-0.31854 -0.85103,0.0588 c -14.96323,1.03463 -24.67908,9.54442 -26.97698,23.62826 -0.28517,1.74775 -0.32277,1.6249 0.4533,1.48078 0.3573,-0.0664 1.20101,-0.2087 1.87489,-0.31629 z"
       id="path417" /></g></svg>
