<?xml version="1.0" encoding="UTF-8" standalone="no"?>
<!-- Created with Inkscape (http://www.inkscape.org/) -->

<svg
   width="99.363609mm"
   height="108.48496mm"
   viewBox="0 0 99.363612 108.48496"
   version="1.1"
   id="svg5"
   xml:space="preserve"
   sodipodi:docname="cube_silhouette.svg"
   inkscape:version="1.2.1 (9c6d41e410, 2022-07-14)"
   xmlns:inkscape="http://www.inkscape.org/namespaces/inkscape"
   xmlns:sodipodi="http://sodipodi.sourceforge.net/DTD/sodipodi-0.dtd"
   xmlns="http://www.w3.org/2000/svg"
   xmlns:svg="http://www.w3.org/2000/svg"><sodipodi:namedview
     id="namedview7"
     pagecolor="#ffffff"
     bordercolor="#666666"
     borderopacity="1.0"
     inkscape:showpageshadow="2"
     inkscape:pageopacity="0.0"
     inkscape:pagecheckerboard="0"
     inkscape:deskcolor="#d1d1d1"
     inkscape:document-units="mm"
     showgrid="false"
     inkscape:zoom="2.587745"
     inkscape:cx="366.34212"
     inkscape:cy="320.54936"
     inkscape:current-layer="layer1" /><defs
     id="defs2" /><g
     inkscape:label="Layer 1"
     inkscape:groupmode="layer"
     id="layer1"
     transform="translate(-43.11977,-70.19361)"><path
       style="fill:#000000;stroke-width:0.110711"
       d="M 69.303337,167.99764 C 56.394416,162.12688 45.222193,157.04093 44.476172,156.69553 l -1.356402,-0.628 0.02786,-31.65201 L 43.1755,92.763513 68.002472,81.478561 92.829444,70.19361 117.65641,81.478561 142.48338,92.763513 v 31.679417 31.67941 l -24.8257,11.28153 c -13.65414,6.20484 -24.83872,11.27845 -24.854645,11.2747 -0.01595,-0.004 -10.590792,-4.81017 -23.499705,-10.68093 z m 21.53331,-22.55623 V 118.28654 L 69.275656,109.126 c -11.858547,-5.03831 -21.598459,-9.159575 -21.644252,-9.158384 -0.04579,0.0015 -0.07071,12.011494 -0.05536,26.689544 l 0.0279,26.68739 21.477961,9.61678 c 11.812872,5.28924 21.540229,9.62088 21.616345,9.62587 0.110363,0.007 0.13839,-5.49086 0.13839,-27.14579 z m 26.349243,17.54069 21.53332,-9.50146 0.0279,-27.31828 c 0.0169,-16.56821 -0.0121,-27.303734 -0.0738,-27.28131 -0.0559,0.02037 -9.79585,4.36727 -21.64424,9.65984 l -21.542533,9.62286 v 27.1609 c 0,14.93851 0.03735,27.16046 0.08304,27.15991 0.04566,-5.5e-4 9.773013,-4.27665 21.616343,-9.50246 z m -1.77137,-58.41313 c 12.26956,-5.342957 22.34744,-9.751027 22.3953,-9.795721 0.1817,-0.169695 -44.897503,-20.083329 -45.201793,-19.967782 -0.471566,0.179061 -44.223564,20.325816 -44.320143,20.408366 -0.05007,0.04279 7.746757,3.430486 17.32629,7.528177 9.579534,4.0977 19.584508,8.3855 22.23327,9.52846 2.648769,1.14295 4.915581,2.06344 5.037361,2.04553 0.121781,-0.0179 10.260155,-4.40408 22.529715,-9.74703 z"
       id="path457" /></g></svg>
