<?xml version="1.0" encoding="UTF-8" standalone="no"?>
<!-- Created with Inkscape (http://www.inkscape.org/) -->

<svg
   version="1.1"
   id="svg2"
   width="93.295509"
   height="97.343796"
   viewBox="0 0 93.295509 97.343796"
   sodipodi:docname="dice.svg"
   inkscape:version="1.2.1 (9c6d41e410, 2022-07-14)"
   xmlns:inkscape="http://www.inkscape.org/namespaces/inkscape"
   xmlns:sodipodi="http://sodipodi.sourceforge.net/DTD/sodipodi-0.dtd"
   xmlns="http://www.w3.org/2000/svg"
   xmlns:svg="http://www.w3.org/2000/svg">
  <defs
     id="defs6" />
  <sodipodi:namedview
     id="namedview4"
     pagecolor="#ffffff"
     bordercolor="#666666"
     borderopacity="1.0"
     inkscape:showpageshadow="2"
     inkscape:pageopacity="0.0"
     inkscape:pagecheckerboard="0"
     inkscape:deskcolor="#d1d1d1"
     showgrid="false"
     inkscape:zoom="11.313709"
     inkscape:cx="21.301592"
     inkscape:cy="29.831067"
     inkscape:current-layer="g8" />
  <g
     inkscape:groupmode="layer"
     inkscape:label="Image"
     id="g8"
     transform="translate(-29.207949,-41.739045)">
    <path
       style="fill:#000000;stroke-width:0.0957594"
       d="m 72.115299,139.04153 c -0.884966,-0.0992 -2.007619,-0.47203 -2.801826,-0.93054 -0.34234,-0.19763 -4.866974,-3.73651 -10.054741,-7.86417 C 41.22508,115.89832 36.897158,112.44755 36.596743,112.17779 35.712945,111.38417 34.835616,109.89139 34.510374,108.6278 34.425801,108.29924 33.23681,98.000311 31.86817,85.741299 30.499529,73.482288 29.334173,63.172091 29.278488,62.829751 c -0.373833,-2.298261 0.7682,-5.11864 2.715147,-6.705361 1.122825,-0.915079 1.51064,-1.051838 12.326625,-4.346859 5.609109,-1.708779 15.024655,-4.578937 20.923437,-6.378127 5.898781,-1.79919 11.048245,-3.357969 11.443253,-3.463951 0.901848,-0.241971 2.455032,-0.263621 3.359374,-0.04683 0.346627,0.0831 4.677347,1.644037 9.623823,3.468759 4.946477,1.824723 13.259673,4.88571 18.473773,6.802193 5.21411,1.916485 9.82585,3.656507 10.24832,3.866719 2.2144,1.101834 3.72383,3.210067 4.08455,5.704942 0.10143,0.701487 -0.0339,3.199999 -1.34408,24.807322 -1.01379,16.719782 -1.50257,24.231132 -1.60715,24.697592 -0.31026,1.38386 -1.35827,3.15989 -2.34962,3.98183 -0.6671,0.55309 -1.29074,0.92998 -4.62708,2.79633 -1.73804,0.97225 -5.42238,3.03814 -8.18743,4.59085 -23.604106,13.25488 -27.879002,15.64753 -28.309099,15.84449 -1.089247,0.49883 -2.660042,0.73497 -3.937032,0.59188 z m -8.72584,-15.15908 c 0.428055,-0.072 1.165649,-0.69797 1.42778,-1.21179 0.711059,-1.39379 0.64095,-3.99457 -0.16879,-6.26148 -1.194951,-3.34534 -3.597533,-5.93911 -5.616414,-6.06337 -0.501756,-0.0309 -0.662021,0.003 -1.100751,0.23558 -0.971316,0.51398 -1.442963,1.51952 -1.519843,3.24026 -0.187801,4.20336 2.925003,9.51388 5.915931,10.09271 0.234619,0.0454 0.491217,0.07 0.570218,0.0546 0.079,-0.0154 0.300342,-0.0543 0.491869,-0.0865 z m 22.401197,-1.35592 c 2.305591,-0.67762 4.466914,-3.0535 5.523207,-6.0715 0.41801,-1.19432 0.552141,-2.01287 0.541357,-3.3037 -0.0082,-0.97945 -0.04751,-1.26033 -0.2664,-1.90238 -0.603664,-1.77073 -1.679898,-2.60998 -3.314978,-2.58502 -3.158402,0.0482 -6.519289,4.13347 -7.013614,8.52526 -0.294946,2.62042 0.686882,4.78939 2.417161,5.33979 0.580488,0.18466 1.480204,0.18361 2.113267,-0.002 z m 20.975604,-9.84344 c 0.93409,-0.37729 1.60177,-0.82867 2.42361,-1.63846 2.01367,-1.98414 3.21763,-4.78962 3.21393,-7.48914 -0.002,-1.65197 -0.35366,-2.74644 -1.16407,-3.625636 -2.32073,-2.517692 -6.96148,0.06262 -8.77548,4.879266 -0.52791,1.40173 -0.71534,2.49015 -0.66155,3.84152 0.033,0.82969 0.10381,1.32214 0.25466,1.77155 0.40915,1.219 1.23866,2.10289 2.29163,2.44187 0.60872,0.19596 1.68326,0.11551 2.41727,-0.18097 z m -58.503831,-2.11758 c 0.242442,-0.1597 0.450008,-0.43212 0.670316,-0.87977 l 0.319126,-0.64844 -0.0064,-1.48608 c -0.0057,-1.33788 -0.03263,-1.57203 -0.269726,-2.34792 -0.58854,-1.92601 -1.432119,-3.4159 -2.539286,-4.48478 -0.860189,-0.830441 -1.536018,-1.154427 -2.293784,-1.099615 -0.723067,0.0523 -1.086081,0.329086 -1.4788,1.127525 l -0.306714,0.62358 0.0069,1.53361 c 0.0062,1.38686 0.03197,1.61607 0.269261,2.39544 0.642857,2.11139 1.815956,3.99432 3.055373,4.90413 0.975337,0.71596 1.849954,0.83909 2.573746,0.36232 z m 14.491522,-1.47109 c 2.060386,-0.93837 2.171276,-5.17191 0.235079,-8.97485 -0.950554,-1.867016 -2.32286,-3.419824 -3.591264,-4.063632 -0.881852,-0.447605 -1.792531,-0.509331 -2.437261,-0.165201 -2.266161,1.209585 -1.914276,6.489203 0.68989,10.350983 0.486043,0.72076 1.600568,1.89378 2.18058,2.29502 1.019525,0.70529 2.132589,0.91765 2.922976,0.55768 z M 46.67752,98.057663 c 0.909283,-0.547748 1.395793,-2.340911 1.190177,-4.386716 -0.293293,-2.918155 -1.536714,-5.757521 -3.242485,-7.40425 -1.155203,-1.115219 -2.138557,-1.396182 -2.991409,-0.854703 -2.28376,1.449969 -1.23655,8.274961 1.761436,11.479817 1.255794,1.342448 2.346187,1.729751 3.282281,1.165852 z m 38.700582,-0.707169 c 2.097229,-0.494472 4.21897,-2.596706 5.392446,-5.342872 0.800424,-1.87315 1.066078,-4.07368 0.677359,-5.610857 -0.332878,-1.316353 -0.96749,-2.199942 -1.91382,-2.664665 -0.47558,-0.233549 -0.647733,-0.265397 -1.403885,-0.259713 -0.69693,0.0052 -0.976879,0.05371 -1.463088,0.253321 -0.988731,0.405921 -1.643345,0.846737 -2.460758,1.657071 -1.317373,1.305963 -2.273906,2.956087 -2.885506,4.97781 -0.23471,0.775864 -0.261522,1.014673 -0.268781,2.393986 -0.0072,1.369751 0.01566,1.600842 0.215763,2.180215 0.420326,1.216998 1.254761,2.104524 2.25678,2.400366 0.630536,0.186164 1.112057,0.190149 1.85349,0.01534 z M 61.853303,93.656276 c 1.655073,-0.828065 2.018571,-3.998125 0.841145,-7.335626 -1.648368,-4.672426 -5.48719,-7.464979 -7.348175,-5.345435 -0.621149,0.707451 -0.875513,1.629777 -0.875513,3.174622 0,5.198472 4.475138,10.96107 7.382543,9.506439 z m 45.394867,-5.346978 c 2.24845,-0.854026 4.48919,-3.64707 5.30689,-6.614938 0.36565,-1.327125 0.42922,-3.104754 0.15046,-4.207098 -0.31754,-1.255703 -0.86879,-2.062327 -1.72957,-2.530822 -1.04866,-0.570752 -2.21528,-0.50901 -3.64598,0.192958 -0.80007,0.392549 -1.03091,0.568747 -1.91519,1.461826 -1.45927,1.473786 -2.31868,2.974803 -2.89227,5.051519 -0.1722,0.623454 -0.20723,1.008011 -0.20787,2.281964 -6.7e-4,1.342924 0.0252,1.602165 0.2095,2.099055 0.4477,1.207037 1.12519,1.979527 2.06295,2.352211 0.64308,0.255575 1.86478,0.215783 2.66108,-0.08667 z m -62.066076,-4.77654 c 0.503526,-0.310558 0.994229,-1.172079 1.150004,-2.019047 0.224722,-1.221829 0.02614,-3.187742 -0.475059,-4.703082 -0.570065,-1.723535 -1.825611,-3.776248 -2.901302,-4.743386 -2.16909,-1.950199 -4.220223,-1.337838 -4.661916,1.391805 -0.136246,0.84199 -0.127053,1.407426 0.04101,2.522419 0.370048,2.455073 1.654398,5.040641 3.262808,6.568474 1.37205,1.303313 2.543875,1.624614 3.584457,0.982817 z M 75.537836,69.905379 c 1.766456,-0.208525 3.180913,-0.609032 4.404934,-1.247268 1.204524,-0.628069 1.81943,-1.325626 1.81943,-2.063981 0,-0.783394 -0.499798,-1.354522 -1.670817,-1.909275 -1.345461,-0.637392 -2.970186,-0.919313 -5.271742,-0.914748 -3.270519,0.0065 -6.269692,0.828941 -7.616394,2.088623 -0.594778,0.556346 -0.762557,0.859086 -0.762557,1.375955 0,0.488723 0.178297,0.842068 0.621079,1.230836 1.463685,1.285132 4.876148,1.864818 8.476067,1.439858 z m 2.824904,-8.413876 c 3.189318,-0.684638 5.020582,-1.936089 4.700321,-3.21211 -0.114637,-0.45675 -0.735797,-1.018379 -1.54026,-1.392643 -4.078543,-1.897482 -12.48083,-0.630487 -13.269209,2.000886 -0.328993,1.098082 1.079837,2.158126 3.501747,2.634814 1.207459,0.237655 1.225442,0.238715 3.495219,0.205831 1.757459,-0.02546 2.331089,-0.0691 3.112182,-0.236778 z M 99.615361,61.34753 c 2.079069,-0.439993 3.287059,-1.245664 3.384249,-2.257128 0.0844,-0.878732 -0.60518,-1.644423 -2.10525,-2.337498 -3.377231,-1.560378 -9.287348,-1.247811 -10.888552,0.57586 -0.157814,0.179741 -0.338122,0.497647 -0.400683,0.706458 -0.103508,0.345478 -0.09018,0.427833 0.148081,0.914815 0.407463,0.832825 1.399555,1.496076 2.985515,1.995928 0.753577,0.237508 1.978554,0.493729 2.764958,0.57833 0.832376,0.08955 3.36849,-0.01948 4.111682,-0.176765 z M 58.649766,60.732841 c 2.440581,-0.476842 4.203283,-1.554537 4.530553,-2.769928 0.302553,-1.123592 -0.849914,-2.208448 -2.939696,-2.767235 -0.838704,-0.224261 -1.109898,-0.250138 -2.657681,-0.253593 -1.438999,-0.0032 -1.887739,0.03172 -2.717098,0.211528 -3.076182,0.666918 -4.893781,2.231971 -4.284806,3.689453 0.413058,0.988586 2.056133,1.799488 4.188509,2.067144 0.982007,0.12326 2.756748,0.04214 3.880219,-0.177369 z M 78.305697,54.29997 c 2.047508,-0.191791 3.864393,-0.815306 4.747344,-1.629182 0.541654,-0.49928 0.720222,-0.822667 0.719749,-1.303474 -0.0021,-2.131375 -5.479981,-3.121281 -9.444466,-1.706706 -1.43224,0.51104 -2.403844,1.290949 -2.574131,2.066262 -0.231717,1.055002 1.285906,2.159323 3.400606,2.474501 1.440434,0.214685 1.793624,0.225737 3.150898,0.0986 z"
       id="path322" />
  </g>
</svg>
