<?xml version="1.0" encoding="UTF-8" standalone="no"?>
<!-- Created with Inkscape (http://www.inkscape.org/) -->

<svg
   width="99.353546mm"
   height="86.913971mm"
   viewBox="0 0 99.353543 86.913972"
   version="1.1"
   id="svg5"
   xml:space="preserve"
   sodipodi:docname="human_silhouette.svg"
   inkscape:version="1.2.1 (9c6d41e410, 2022-07-14)"
   xmlns:inkscape="http://www.inkscape.org/namespaces/inkscape"
   xmlns:sodipodi="http://sodipodi.sourceforge.net/DTD/sodipodi-0.dtd"
   xmlns="http://www.w3.org/2000/svg"
   xmlns:svg="http://www.w3.org/2000/svg"><sodipodi:namedview
     id="namedview7"
     pagecolor="#ffffff"
     bordercolor="#666666"
     borderopacity="1.0"
     inkscape:showpageshadow="2"
     inkscape:pageopacity="0.0"
     inkscape:pagecheckerboard="0"
     inkscape:deskcolor="#d1d1d1"
     inkscape:document-units="mm"
     showgrid="false"
     inkscape:zoom="1.8614459"
     inkscape:cx="276.12943"
     inkscape:cy="275.86082"
     inkscape:current-layer="layer1" /><defs
     id="defs2" /><g
     inkscape:label="Layer 1"
     inkscape:groupmode="layer"
     id="layer1"
     transform="translate(-4.1023272,-47.137799)"><path
       style="fill:#000000;stroke-width:0.193886"
       d="m 37.72409,133.73183 c -2.667802,-1.43734 -1.506841,-7.59247 1.432069,-7.59247 0.282051,0 0.312902,-0.67644 0.312902,-6.86048 v -6.86048 l -1.405671,-0.51776 c -1.627729,-0.59956 -3.90063,-1.89553 -4.546298,-2.59221 l -0.446259,-0.48153 v -7.921 c 0,-4.585586 -0.07374,-7.921 -0.175122,-7.921 -0.504849,0 -4.461496,1.521882 -6.32005,2.43094 -3.383179,1.654788 -3.879228,2.026149 -4.151672,3.108122 -1.256867,4.991478 -4.91873,7.691528 -8.547843,6.302718 -4.2931208,-1.64293 -4.9849436,-5.295616 -1.679257,-8.866158 1.534853,-1.657824 1.509702,-1.696203 -0.986672,-1.505623 C 4.5537762,94.963059 2.3048905,92.295763 5.6073849,87.809643 8.252227,84.21688 11.740141,83.476337 16.309901,85.53731 c 0.112239,0.05061 0.940385,-0.439695 1.840325,-1.089589 3.906708,-2.82123 8.466064,-4.901053 13.500593,-6.158511 l 1.323071,-0.330457 0.112442,-4.459369 C 33.381124,61.80828 39.17226,54.5083 49.390354,52.947461 c 0.688314,-0.105147 0.757392,-0.19404 2.100983,-2.703674 2.156558,-4.028118 2.884991,-4.096737 4.74884,-0.447328 l 1.163316,2.277757 0.775541,0.0018 c 9.806503,0.02221 16.458274,9.292863 16.719141,23.301746 l 0.103581,5.562173 1.767639,-0.636182 c 2.899322,-1.043481 4.612023,-1.812415 6.421471,-2.882987 l 1.712225,-1.01305 0.424101,-1.260259 c 1.84685,-5.48812 5.088805,-7.635331 8.862134,-5.869579 4.018871,1.880657 4.516266,5.225449 1.289946,8.674399 -1.553492,1.660691 -1.430293,1.783706 1.509492,1.507275 5.559006,-0.522729 7.739596,1.588972 5.736196,5.554959 -2.00638,3.971871 -6.530598,5.608391 -10.491495,3.795032 l -1.075752,-0.492495 -0.590711,0.437962 c -3.017675,2.23733 -5.964426,3.908657 -9.121686,5.173602 -1.727033,0.691929 -2.818759,1.032198 -5.661357,1.764525 l -0.814211,0.209764 -0.05829,6.379549 c -0.05513,6.03613 -0.07923,6.40759 -0.447578,6.90061 -0.534369,0.71521 -2.577855,1.91697 -4.503309,2.64836 l -1.602559,0.60875 v 6.82538 6.82539 l 0.53319,0.10714 c 3.09254,0.62141 3.77992,5.45523 1.042546,7.33142 l -0.674472,0.46228 -7.478991,-0.0274 c -4.113435,-0.0151 -7.740731,-0.0304 -8.060638,-0.0339 -0.319913,-0.004 -3.897107,0.0325 -7.94932,0.0803 -6.943308,0.0818 -7.40674,0.0657 -8.046255,-0.27882 z M 69.991061,129.29 c -0.152172,-0.67994 -1.12093,-1.59965 -1.684563,-1.59926 -0.35494,2e-4 -0.310613,0.0615 0.245417,0.3393 0.387633,0.19365 0.844874,0.65053 1.066374,1.06555 0.462677,0.86689 0.531284,0.90268 0.372772,0.19441 z m -17.240828,-1.40567 c -0.0659,-0.10664 -0.310988,-0.18775 -0.544628,-0.18025 -0.409555,0.0131 -0.410889,0.0196 -0.03703,0.18025 0.533666,0.22933 0.723389,0.22933 0.581655,0 z m 2.811346,-7.60849 v -5.76962 H 53.91355 52.26552 v 5.81657 c 0,5.40772 0.02388,5.81705 0.339299,5.82344 0.186615,0.004 0.544473,0.12065 0.795236,0.25972 0.382007,0.21185 0.594219,0.20312 1.308731,-0.0538 l 0.852793,-0.30667 z M 59.408928,81.453392 C 69.149717,79.82407 72.128572,73.333101 66.586687,65.81295 59.2213,55.818365 45.702291,56.295629 39.479632,66.769914 c -4.806913,8.091232 -0.669043,13.883062 10.750089,15.047033 1.580886,0.161144 7.426471,-0.07038 9.179207,-0.363555 z M 39.983826,73.823417 c -2.845362,-3.14409 5.851608,-13.41132 11.360204,-13.41132 2.815776,0 2.402368,2.618384 -0.473906,3.001534 -3.573812,0.476073 -7.681784,5.031284 -8.396117,9.310206 -0.231771,1.388347 -1.658653,2.018408 -2.490181,1.09958 z"
       id="path302"
       inkscape:export-filename="human_silhouette.svg"
       inkscape:export-xdpi="229.91"
       inkscape:export-ydpi="229.91" /></g></svg>
