<?xml version="1.0" encoding="UTF-8" standalone="no"?>
<!-- Created with Inkscape (http://www.inkscape.org/) -->

<svg
   version="1.1"
   id="svg329"
   width="97.049973"
   height="99.423416"
   viewBox="0 0 97.049976 99.423416"
   sodipodi:docname="ship.svg"
   inkscape:version="1.2.1 (9c6d41e410, 2022-07-14)"
   xmlns:inkscape="http://www.inkscape.org/namespaces/inkscape"
   xmlns:sodipodi="http://sodipodi.sourceforge.net/DTD/sodipodi-0.dtd"
   xmlns="http://www.w3.org/2000/svg"
   xmlns:svg="http://www.w3.org/2000/svg">
  <defs
     id="defs333" />
  <sodipodi:namedview
     id="namedview331"
     pagecolor="#ffffff"
     bordercolor="#666666"
     borderopacity="1.0"
     inkscape:showpageshadow="2"
     inkscape:pageopacity="0.0"
     inkscape:pagecheckerboard="0"
     inkscape:deskcolor="#d1d1d1"
     showgrid="false"
     inkscape:zoom="17.766328"
     inkscape:cx="42.833837"
     inkscape:cy="44.550567"
     inkscape:current-layer="g335" />
  <g
     inkscape:groupmode="layer"
     inkscape:label="Image"
     id="g335"
     transform="translate(-7.7289428,-7.2496281)">
    <path
       style="fill:#000000;stroke-width:0.101539"
       d="m 37.620184,106.63935 c -0.652386,-0.1681 -0.931912,-0.30489 -1.296903,-0.63463 -1.096445,-0.99058 -1.444123,-2.47335 -1.003175,-4.27834 0.102323,-0.41884 1.223648,-3.613336 2.491833,-7.098866 L 40.11773,88.290185 39.681269,87.829587 C 38.175397,86.240436 25.51678,73.442335 25.426939,73.418191 c -0.06056,-0.01628 -3.007806,1.06439 -6.549436,2.401481 -3.541631,1.337089 -6.725951,2.487462 -7.076267,2.556382 -1.303477,0.256443 -2.4455588,-0.02491 -3.2158982,-0.792236 -0.6295619,-0.627102 -0.8000468,-1.06135 -0.8464502,-2.156026 -0.056261,-1.327231 0.089962,-1.86977 1.3937525,-5.171281 0.6080546,-1.53974 1.6846699,-4.284535 2.3924789,-6.099544 2.065351,-5.296104 2.515747,-6.342349 4.432462,-10.296364 2.788052,-5.751507 2.95847,-5.998382 5.216798,-7.557286 2.673452,-1.845461 3.284028,-2.231804 3.878867,-2.454361 1.37018,-0.51265 1.540203,-0.532411 5.002286,-0.58135 3.053663,-0.04317 3.576689,-0.02326 7.006188,0.266628 2.038395,0.172302 3.963515,0.340357 4.278045,0.373457 l 0.571872,0.06018 1.769465,-2.36936 c 2.588445,-3.465999 3.959221,-5.059898 8.148832,-9.475229 7.65404,-8.066408 14.427427,-13.753922 20.555038,-17.259761 4.906796,-2.807364 11.308097,-5.4424147 16.013062,-6.5916637 3.175634,-0.77569 5.374179,-1.0288508 8.876289,-1.0220982 2.914657,0.00562 4.959807,0.184414 5.859147,0.5122276 0.96516,0.3518079 1.35736,1.2673089 1.55558,3.6311823 0.1805,2.152566 0.0768,6.632364 -0.20131,8.695886 -0.74401,5.520663 -2.57629,11.372253 -5.328757,17.018003 -2.317819,4.754219 -4.383535,7.883501 -9.042721,13.698513 -4.588834,5.727204 -10.086598,11.591872 -14.57356,15.546153 -0.925914,0.815992 -5.550906,4.52112 -6.310135,5.055113 -0.157202,0.110566 -0.148714,0.304015 0.118673,2.704638 0.680226,6.107123 0.763261,8.971912 0.319847,11.034976 -0.158503,0.737466 -1.615784,5.404915 -2.180716,6.9845 -0.273464,0.764623 -1.913328,2.161375 -4.212402,3.587908 -3.736629,2.318509 -3.650135,2.276237 -13.320801,6.510311 -8.246127,3.61037 -9.051569,3.95265 -9.849279,4.1855 -0.660277,0.19273 -2.105213,0.32323 -2.487705,0.22468 z M 82.891825,40.334155 c 3.430645,-0.765174 6.108371,-3.916048 6.445596,-7.584521 0.379257,-4.125716 -1.753884,-7.844249 -5.282655,-9.208826 -2.314552,-0.895038 -5.170686,-0.751358 -7.299298,0.367196 -3.057353,1.606593 -4.904674,5.283887 -4.467299,8.892647 0.499467,4.121078 3.305268,7.092025 7.267606,7.695367 0.795057,0.121063 2.421328,0.04216 3.33605,-0.161863 z"
       id="path456" />
  </g>
</svg>
