<?xml version="1.0" encoding="UTF-8" standalone="no"?>
<!DOCTYPE svg PUBLIC "-//W3C//DTD SVG 1.1//EN" "http://www.w3.org/Graphics/SVG/1.1/DTD/svg11.dtd">
<svg width="100%" height="100%" viewBox="0 0 144 145" version="1.1" xmlns="http://www.w3.org/2000/svg" xmlns:xlink="http://www.w3.org/1999/xlink" xml:space="preserve" xmlns:serif="http://www.serif.com/" style="fill-rule:evenodd;clip-rule:evenodd;stroke-linejoin:round;stroke-miterlimit:2;">
    <g transform="matrix(0.373029,0,0,0.373029,-25.8211,-19.7595)">
        <g id="Image">
            <path id="path764" d="M299.622,430.288C296.35,426.284 298.436,409.262 295.512,422.872C294.066,430.937 274.256,429.485 287.317,423.629C281.418,415.46 259.475,412.605 277.155,403.013C282.687,377.441 230.373,395.028 256.672,410.334C254.968,419.811 238.366,415.219 239.046,426.193C230.553,406.721 216.02,440.137 201.518,430.43C183.572,427.052 166.124,401.968 148.846,423.224C131.137,430.414 109.21,434.152 90.996,427.981C71.738,416.059 80.161,392.588 79.245,374.205C79.499,333.353 79.767,291.402 81.284,250.565C87.075,265.163 100.738,273.016 95.793,254.174C103,247.334 117.338,273.645 121.374,253.677C135.078,234.712 103.4,231.377 98.247,238.634C94.233,226.172 80.685,224.868 80.585,236.016C76.576,218.558 80.89,199.6 79.057,181.563C77.825,170.91 102.679,171.164 95.583,148.676C98.152,134.46 81.893,135.205 80.294,132.079C80.542,113.48 74.564,87.071 84.941,73.361C99.899,61.176 118.954,61.672 136.557,65.453C153.572,73.341 170.926,88.203 186.643,69.49C202.793,56.402 221.528,66.69 236.1,73.338C243.991,56.678 238.434,84.249 252.753,78.901C263.38,85.002 237.481,102.24 260.632,103.109C277.516,106.949 282.149,89.957 273.649,81.503C277.765,75.382 290.998,72.598 290.577,68.935C299.702,82.795 309.338,56.09 323.721,63.826C344.871,63.928 360.454,92.566 380.168,71.106C396.359,60.213 422.398,60.494 436.549,74.802C449.408,91.387 443.587,114.523 436.311,132.133C420.064,154.448 450.514,171.979 441.895,194.787C438.771,219.125 426.006,242.199 434.836,267.132C441.374,289.577 448.065,313.893 434.755,335.752C423.221,354.446 448.897,369.466 442.096,388.971C447.152,408.254 438.38,432.779 414.825,430.493C396.456,435.476 377.259,428.153 366.097,414.967C347.315,419.246 333.517,437.88 311.89,430.435C307.8,430.415 303.711,430.366 299.622,430.288L299.622,430.288ZM171.12,410.426C188.371,392.288 138.433,397.434 160.207,411.752C163.678,413.394 168.248,413.187 171.12,410.426ZM367.529,410.804C384.392,395.085 337.344,394.439 353.283,410.923C357.954,412.394 362.807,411.141 367.529,410.804ZM232.547,400.919C228.165,380.855 191.8,374.594 180.928,385.131C183.627,406.161 214.322,401.309 229.237,406.446C231.404,405.5 232.666,403.191 232.547,400.919ZM297.533,406.947C312.586,398.727 346.235,406.904 344.906,381.855C328.075,374.511 291.324,384.538 295.733,405.741L297.533,406.947ZM367.925,394.446C369.082,380.024 352.581,376.615 355.324,392.961C356.844,398.874 364.384,397.258 367.925,394.446ZM172.794,389.108C183.278,367.596 143.679,383.613 165.178,388.963C167.706,389.271 170.258,389.325 172.794,389.108ZM290,388.846C305.775,388.082 291.725,363.694 286.758,381.85C284.653,384.291 285.304,391.817 290,388.846ZM278.225,384.396C275.238,368.122 239.573,385.444 264.118,386.761C268.776,387.461 274.784,388.744 278.225,384.396ZM169.517,372.028C193.598,352.023 142.191,346.562 159.424,371.219C162.392,373.166 166.271,373.255 169.517,372.028ZM373.148,369.961C386.138,344.484 331.324,346.479 355.263,370.387C360.344,374.386 368.214,374.01 373.148,369.961ZM268.964,369.068C279.296,376.354 315.886,360.45 291.28,353.996C281.408,354.304 253.505,355.975 262.644,371.299L265.999,370.72L268.964,369.068ZM256.817,362C275.861,352.11 304.073,348.522 320.835,343.168C334.38,359.392 347.701,329.997 356.04,320.483C357.351,302.64 330.631,324.911 326.222,332.406C310.252,346.602 287.912,351.385 267.244,352.008C263.699,351.5 246.968,368.909 256.817,362ZM311,364.933C319.229,363.889 325.079,353.387 312.589,359.353C310.634,360.481 310.057,363.032 311,364.933ZM86.085,362.553C112.378,363.689 86.684,312.804 80.799,343.706C80.52,350.146 79.1,358.944 86.085,362.553ZM142.197,356.622C166.183,369.418 161.679,317.379 142.08,337.162C137.799,341.909 133.626,353.819 142.197,356.622ZM382.638,356.5C408.189,344.634 352.687,322.356 369.985,347.547C373.71,351.177 378.219,353.828 382.638,356.5ZM109.269,354.544C128.598,342.698 89.679,328.578 99.665,350.726C101.105,354.345 105.704,358.743 109.269,354.544ZM426.687,354.647C442.178,339.697 402.698,330.311 414.564,351.222C416.21,355.963 422.798,357.642 426.687,354.647ZM395,350.63C413.649,347.269 404.448,319.11 417.973,308.139C425.13,297.805 420.525,269.262 405.251,286.326C391.56,304.512 403.648,329.05 392.306,347.279C390.442,351.238 391.522,355.916 395,350.63ZM124.75,350.367C140.653,347.354 112.506,329.821 120.307,347.3C119.349,349.742 123.062,353.432 124.75,350.367ZM193.491,335.306C187.361,325.343 168.52,296.056 161.336,313.707C165.111,320.478 194.526,358.753 193.491,335.306ZM288.326,346.074C302.356,343.081 283.037,340.978 285.046,346.501L288.326,346.074ZM198.195,343.25C197.626,315.283 161.675,303.825 162.545,275.33C161.555,264.572 156.171,231.402 142.832,244.197C150.829,256.962 135.675,285.663 157.789,283.861C164.95,282.578 169.341,306.032 178.37,312.821C185.532,322.511 195.921,330.77 198.195,343.25ZM285.207,340.448C342.028,329.095 376.576,257.74 349.05,206.39C331.017,166.896 283.671,143.415 241.486,155.365C191.815,166.072 155.946,221.292 170.411,270.864C182.122,317.084 231.088,351.724 278.815,341.878L282.025,341.226L285.207,340.448ZM251.523,277.578C229.554,266.844 221.859,231.143 246.032,218.411C266.82,205.2 290.719,227.338 291.178,248.439C289.988,274.413 245.955,282.239 240.017,255.183C237.217,245.905 236.412,220.559 233.554,244.609C229.702,265.168 256.666,277.735 266.16,279.062C261.439,280.069 255.804,280.026 251.523,277.578ZM265.456,270.017C288.877,270.876 295.968,234.665 275,225.395C253.431,213.355 227.369,245.453 247.4,262.481C251.394,267.861 258.457,273.295 265.456,270.017ZM293,264.404C291.228,257.29 300.08,244.081 296.783,258.493C296.331,260.738 295.347,263.46 293,264.404ZM284.538,223.899C276.578,220.27 284.553,219.456 286.185,223.719L284.538,223.899ZM304.482,341.209C312.186,339.21 335.609,319.35 315.989,330.663C311.565,332.999 303.874,334.729 304.482,341.209ZM216.667,336.514C210.497,328.186 201.277,328.461 213.415,336.181L216.667,336.514ZM129.642,331C135.841,309.054 125.001,286.672 111.592,269.768C95.956,283.977 114.291,307.16 114.594,324.465C117.433,329.645 123.731,333.475 129.642,331ZM114.227,306.479C113.168,291.666 128.239,314.983 114.338,306.544L114.227,306.479ZM197.543,321.047C191.993,317.62 175.264,294.196 185.342,311.716C188.132,315.99 191.801,321.084 197.543,321.047ZM138.176,285.49C147.562,271.009 111.867,271.289 130.13,282.839C132.489,284.505 135.39,285.038 138.176,285.49ZM92.999,281.628C94.153,268.247 77.435,288.464 92.521,281.915L92.999,281.628ZM405.504,271.987C399.212,258.954 392.22,283.118 405.361,272.088L405.504,271.987ZM409,263C439.047,270.431 417.843,211.582 405.055,244.202C403.808,250.614 404.551,257.907 409,263ZM136,251.955C142.775,238.038 120.629,228.062 126.975,249.585C125.955,260.52 132.494,266.05 136,251.955ZM401.628,247.316C405.949,221.434 372.547,253.781 396.037,260.522C402.908,263.287 405.791,252.298 401.628,247.316ZM382.655,257.75C379.348,244.268 388.437,211.018 370.639,211.789C359.187,214.141 360.535,189.086 349.699,183.486C344.323,176.7 356.44,181.182 358.742,183.294C363.106,187.299 363.491,194.025 362.348,178.225C360.24,160.864 334.147,148.657 335.07,157.112C329.827,148.726 333.244,177.601 341.203,178.169C360.536,195.748 367.236,221.44 368.975,246.444C370.477,252.688 375.647,258.8 382.655,257.75ZM363.044,233.448C363.925,220.459 358.023,229.17 361.602,235.82L363.044,233.448ZM114.75,224.099C114.025,210.143 99.315,231.466 114.028,224.132L114.75,224.099ZM405.365,223.491C410.035,208.821 377.557,212.048 395.406,222.344C398.124,224.258 402.497,226.621 405.365,223.491ZM421.622,223.685C422.874,204.198 420.547,169.41 400.309,164.75C385.403,179.678 405.838,202.817 410.332,218.887C413.234,221.911 417.345,224.013 421.622,223.685ZM94.631,217.336C93.642,201.979 79.691,228.779 93.347,219.171C93.676,218.94 94.02,218.038 94.382,217.764L94.631,217.336ZM122.57,210.232C124.324,195.528 144.24,169.348 120.717,163.311C111.282,176.953 95.733,208.566 116.832,216.473C119.647,215.716 122.63,213.485 122.57,210.232ZM181.668,193.25C191.108,181.507 180.356,189.265 178.688,195.601L181.668,193.25ZM180.754,181.025C201.357,161.001 227.795,141.55 258.104,144.383C269.22,144.875 274.235,134.718 262.741,138.529C265.656,132.698 273.412,120.044 259.634,125.399C242.282,125.274 218.012,129.854 219.201,151.1C209.464,157.684 209.332,149.416 207.108,146.517C189.003,145.101 172.871,168.675 167.497,180.607C170.518,184.691 177.465,184.871 180.754,181.025ZM225.578,145.344C233.699,136.949 247.042,144.929 229.515,145.808L225.578,145.344ZM200.233,173.5C214.513,157.36 231.969,158.681 250.171,149.477C226.196,150.872 206.703,158.394 192.865,178.891C195.272,180.855 197.579,173.781 200.233,173.5ZM164.217,154.744C167.507,134.318 123.843,141.885 146.012,156.056C151.095,158.425 164.518,166.088 164.217,154.744ZM375.379,159.713C394.798,173.741 388.94,125.042 376.163,146.83C371.706,151.28 359.256,164.251 375.379,159.713ZM426.825,159.608C442.26,136.654 395.578,147.538 419.786,160.807C422.283,161.221 424.508,160.451 426.825,159.608ZM113,158.318C128.161,141.805 85.997,134.415 100.328,156.133C102.68,160.475 109.379,161.75 113,158.318ZM128,157.879C152.626,156.499 118.287,126.493 121.736,151.273C121.454,154.578 124.094,159.072 128,157.879ZM400.934,156.894C404.745,158.099 410.243,147.452 409.071,156.198C424.209,137.466 379.855,143.386 400.934,156.894ZM286.515,150.975C280.048,141.107 264.126,152.549 281.487,150.862C283.15,151.169 284.838,150.956 286.515,150.975ZM177,147.014C187.456,130.922 158.08,101.567 154.668,129.924C154.648,140.805 166,151.656 177,147.014ZM365.94,148.74C388.982,140.022 351.931,107.953 352.377,135.437C348.032,143.917 357.741,152.533 365.94,148.74ZM211.395,136.976C225.023,127.246 198.345,139.572 208.37,137.973L211.395,136.976ZM227.516,121.183C242.974,129.457 239.527,93.916 228.909,113.574C227.384,115.162 221.634,121.366 227.516,121.183ZM370.559,118.571C370.432,109.563 364.29,89.834 356.282,103.957C351.392,115.026 358.283,126.541 370.559,118.571ZM189.831,116.347C204.981,107.645 235.025,114.441 237.896,91.723C218.9,85.048 183.593,91.305 179.724,113.047C180.336,118.048 186.3,119.957 189.831,116.347ZM347.625,117.465C352.459,93.038 320.255,91.022 303.746,88.071C283.796,99.147 310.762,113.169 323.813,112.469C331.644,114.579 339.528,116.681 347.625,117.465ZM266.874,116.535C291.749,113.525 246.058,93.773 254.926,114.711C258.347,116.935 262.95,118.556 266.874,116.535ZM173.575,112.061C189.837,98.884 159.732,66.421 157.097,92.399C165.181,97.581 168.952,96.908 160.667,103.039C158.077,111.681 166.31,117.839 173.575,112.061ZM372.045,96C384.293,77.158 338.085,82.897 357.294,96.503C362.129,97.838 367.275,97.33 372.045,96Z" style="fill-rule:nonzero;"/>
        </g>
    </g>
</svg>
