<?xml version="1.0" encoding="UTF-8" standalone="no"?>
<!-- Created with Inkscape (http://www.inkscape.org/) -->

<svg
   version="1.1"
   id="svg637"
   width="363.01431"
   height="365.51801"
   viewBox="0 0 363.01431 365.51801"
   sodipodi:docname="start_tile.svg"
   inkscape:version="1.2.1 (9c6d41e410, 2022-07-14)"
   xmlns:inkscape="http://www.inkscape.org/namespaces/inkscape"
   xmlns:sodipodi="http://sodipodi.sourceforge.net/DTD/sodipodi-0.dtd"
   xmlns="http://www.w3.org/2000/svg"
   xmlns:svg="http://www.w3.org/2000/svg">
  <defs
     id="defs641" />
  <sodipodi:namedview
     id="namedview639"
     pagecolor="#ffffff"
     bordercolor="#666666"
     borderopacity="1.0"
     inkscape:showpageshadow="2"
     inkscape:pageopacity="0.0"
     inkscape:pagecheckerboard="0"
     inkscape:deskcolor="#d1d1d1"
     showgrid="false"
     inkscape:zoom="2.1395833"
     inkscape:cx="164.05063"
     inkscape:cy="175.03408"
     inkscape:current-layer="g643" />
  <g
     inkscape:groupmode="layer"
     inkscape:label="Image"
     id="g643"
     transform="translate(-79,-65)">
    <path
       style="fill:#000000"
       d="m 299.62171,430.28838 c -3.27185,-4.00462 -1.18538,-21.0266 -4.11007,-7.41615 -1.44539,8.06488 -21.256,6.61252 -8.19496,0.75681 -5.89905,-8.16939 -27.84132,-11.024 -10.16167,-20.61564 5.53153,-25.57197 -46.78173,-7.98492 -20.48265,7.32032 -1.70434,9.47694 -18.30675,4.88561 -17.62588,15.85949 -8.493,-19.47248 -23.02685,13.94394 -37.52866,4.23727 -17.94596,-3.37822 -35.39429,-28.46238 -52.67158,-7.20658 -17.70889,7.18961 -39.63626,10.92765 -57.849793,4.75712 -19.258036,-11.92198 -10.83516,-35.39312 -11.751705,-53.77615 0.253901,-40.85162 -0.782733,-81.72021 0.734237,-122.5572 -3.736791,14.16446 20.759471,21.36853 15.813921,2.52598 7.20677,-6.83921 21.54537,19.47087 25.58151,-0.49673 13.70398,-18.9648 -20.70684,-26.51399 -23.126911,-15.04293 -1.369953,-12.28793 -17.56265,-13.76629 -17.662139,-2.61785 -4.009768,-17.45776 0.304977,-36.4165 -1.5279,-54.45305 -1.232045,-10.6535 2.62102,-36.66872 -1.146361,-37.5442 -6.247746,16.96851 26.716631,25.27008 19.620387,2.78188 C 100.10056,132.58445 81.893129,135.2047 80.29424,132.07909 80.5417,113.47977 74.56382,87.071146 84.940889,73.360741 99.898677,61.176064 118.9539,61.671568 136.55678,65.452731 c 17.01555,7.887806 34.36923,22.750767 50.08657,4.036868 16.15011,-13.087977 34.88435,-2.799472 49.45663,3.848291 7.89077,-16.660348 2.33443,10.911521 16.653,5.562656 10.62687,6.101887 -14.16877,25.940514 8.9815,26.809444 16.88475,3.84006 20.41406,-15.753487 11.91449,-24.206555 4.1156,-6.121684 17.34927,-8.905874 16.92839,-12.568188 9.12429,13.859691 18.76059,-12.844779 33.14373,-5.109136 21.15008,0.101925 36.73264,28.740019 56.44701,7.279443 16.1909,-10.892211 42.22988,-10.611901 56.38066,3.696652 12.85895,16.58462 7.03856,39.720354 -0.23767,57.330534 -16.24712,22.31521 14.20257,39.84667 5.58411,62.65408 -3.12467,24.33864 -15.88931,47.41198 -7.05962,72.34486 6.5387,22.4456 13.22946,46.76094 -0.0806,68.6206 -11.53402,18.69404 14.14186,33.71369 7.34085,53.21872 5.05578,19.28254 -3.71617,43.80818 -27.27061,41.52168 -18.36929,4.98294 -37.56669,-2.33988 -48.7285,-15.52563 -18.78157,4.27914 -32.58005,22.9128 -54.20705,15.46769 -4.08961,-0.0198 -8.17908,-0.0688 -12.268,-0.14636 z m -128.5018,-19.86249 c 17.25139,-18.13811 -32.68685,-12.99155 -10.91265,1.32624 3.47036,1.64166 8.04052,1.43446 10.91265,-1.32624 z m 196.40926,0.37828 c 16.86303,-15.71885 -30.18488,-16.3651 -14.24599,0.1186 4.67072,1.47086 9.52391,0.21812 14.24599,-0.1186 z m -126.178,-8.80449 c -3.31478,-19.28928 -7.90293,18.7722 0,0 z m 51.08284,3.75032 c 3.06455,-22.70181 -16.0137,8.82893 0,0 z m -59.88706,-4.83113 c -4.38146,-20.0643 -40.74676,-26.32463 -51.61935,-15.7876 2.69919,21.02997 33.39441,16.1777 48.30895,21.31425 2.16713,-0.94546 3.4298,-3.25476 3.3104,-5.52665 z m -12.6074,-1.49171 c -1.86473,-21.73525 14.90225,7.1691 0,0 z m -16.26478,-2.76987 c -11.28409,-25.18911 23.9815,2.74944 0,0 z M 189.25,391.33772 c -9.08876,-13.97684 13.7857,-1.12223 0,0 z m 108.28262,15.60949 c 15.05341,-8.21994 48.70192,-0.0437 47.3732,-25.09209 -16.83053,-7.3439 -53.5819,2.68321 -49.17311,23.8861 z m 4.58754,-7.3193 c -8.70601,-20.52673 12.65477,1.13518 0,0 z m 15.46223,-3.13914 c -8.20708,-21.2034 17.55031,5.75092 0,0 z M 333.2,390.8 c -6.13466,-13.50195 12.37022,2.38552 0,0 z m -49.61643,10.83154 c -5.6465,-4.49806 -0.38909,6.47638 0,0 z M 247.5,398.5 c -1.54212,-9.0076 -1.29244,10.44485 0,0 z M 283,398 c -1.50869,-3.59322 -1.39207,4.67726 0,0 z m -112.28138,-1.92349 c -7.07633,-13.15401 -15.36923,8.58069 0,0 z m 197.20594,-1.63088 c 1.15706,-14.42166 -15.34359,-17.83038 -12.60057,-1.4842 1.52007,5.913 9.05971,4.29686 12.60057,1.4842 z m -195.13072,-5.33728 c 10.48401,-21.5125 -29.11464,-5.49557 -7.61546,-0.14485 2.52768,0.30781 5.07927,0.3613 7.61546,0.14485 z m -5.28676,-9.0969 c 3.16522,-2.79156 0.61967,6.78034 0,0 z M 290,388.84617 c 15.77465,-0.7645 1.72506,-25.15174 -3.24167,-6.99648 -2.10531,2.44152 -1.45438,9.96742 3.24167,6.99648 z m -46.72554,-0.398 c 8.06297,-16.66506 -14.62578,-2.26724 0,0 z m 34.95044,-4.05201 c -2.98671,-16.27375 -38.65145,1.04796 -14.10656,2.36468 4.65743,0.69994 10.66604,1.98361 14.10656,-2.36468 z m 89.835,-7.49308 c -11.73633,-11.16181 -15.31474,9.16725 0,0 z m -198.54244,-4.87483 c 24.0802,-20.00552 -27.32655,-25.46645 -10.09349,-0.80951 2.9679,1.94715 6.84703,2.03656 10.09349,0.80951 z M 276,370.95238 c -2.52075,-8.67333 -4.67326,6.57848 0,0 z m 97.14772,-0.99101 c 12.99049,-25.47767 -41.82327,-23.48201 -17.8843,0.42582 5.08047,3.99869 12.95042,3.62284 17.8843,-0.42582 z m -104.18397,-0.89365 c 10.33222,7.28653 46.92224,-8.61725 22.31629,-15.072 -9.87221,0.30872 -37.77538,1.97946 -28.63568,17.30308 l 3.35481,-0.57878 z M 299,362 c 3.24737,-8.91993 0.92867,6.95484 0,0 z m -42.18333,0 c 19.04449,-9.89028 47.25606,-13.47821 64.01811,-18.83174 13.54482,16.22341 26.86672,-13.17096 35.20506,-22.6849 1.31078,-17.84327 -25.40878,4.42765 -29.81788,11.9223 -15.96997,14.19642 -38.3095,18.97937 -58.97791,19.60281 -3.54479,-0.5082 -20.27592,16.90064 -10.42738,9.99153 z m 68.8217,-25.5 c 2.74494,-6.35403 0.16395,4.36917 0,0 z m 8.81713,-8.15995 c 11.17688,-9.35764 -9.22203,11.20066 0,0 z m 12.20242,-9.89098 c 1.14501,-8.21857 2.94373,4.37131 0,0 z M 311,364.93261 c 8.22909,-1.04348 14.07859,-11.54601 1.58899,-5.57922 -1.95457,1.12725 -2.53244,3.67812 -1.58899,5.57922 z M 86.08541,362.55279 c 26.29307,1.13631 0.598611,-49.74927 -5.286521,-18.84688 -0.279309,6.44043 -1.699078,15.23828 5.286521,18.84688 z M 225,360.45203 c -4.14379,-8.7946 -4.02163,7.71641 0,0 z M 307.5,359 c -0.56466,-4.14125 -2.40701,5.12582 0,0 z m -165.30279,-2.37812 c 23.98562,12.79569 19.48185,-39.24308 -0.11707,-19.45984 -4.28109,4.74708 -8.45411,16.65698 0.11707,19.45984 z M 382.63837,356.5 c 25.5509,-11.86594 -29.95126,-34.14421 -12.65336,-8.95291 3.72464,3.62965 8.23362,6.28059 12.65336,8.95291 z m -273.36983,-1.95619 c 19.32906,-11.8461 -19.589133,-25.96589 -9.603049,-3.81795 1.439269,3.61946 6.038139,8.01742 9.603049,3.81795 z m 317.4182,0.10279 c 15.49165,-14.94957 -23.98899,-24.33572 -12.12303,-3.42453 1.64677,4.74109 8.23399,6.42021 12.12303,3.42453 z M 395,350.63045 c 18.64912,-3.36167 9.44751,-31.52023 22.97299,-42.49159 7.1573,-10.334 2.55248,-38.87656 -12.72155,-21.81237 -13.69191,18.18546 -3.76933,42.72344 -15.11037,60.95244 -1.86488,3.95886 1.38112,8.63707 4.85893,3.35152 z m 0.0153,-4.32143 c -2.39512,-5.40175 4.4249,-0.73662 0,0 z m 6.61683,-24.42382 c -2.45431,-23.02761 12.98378,9.70122 0,0 z m 3.82241,-14.33975 c -7.11086,-22.68341 17.62847,8.84044 0,0 z m 5.11688,-17.11688 c -4.41292,-22.39148 14.61565,8.10031 0,0 z M 411,354.04422 c 10.77183,-11.75044 -12.16729,-19.94658 0,0 z M 136.85077,342.5 c -6.78225,-9.77082 0.0517,17.52891 0,0 z m -18.66664,8.01746 c 7.76265,-18.07769 -12.33137,-5.48831 0,0 z M 124.75,350.3666 c 15.90269,-3.01212 -12.24361,-20.54601 -4.44321,-3.06641 -0.95771,2.44184 2.75497,6.13157 4.44321,3.06641 z M 256.2,346.8 c -4.61424,0.84605 3.77174,3.18426 0,0 z m 11.8,1.20313 c -4.82939,-4.88408 -3.42157,6.18475 0,0 z m -102,-1.12116 c -4.20596,-2.48249 1.65553,6.79324 0,0 z m 86.29767,0.45136 c -9.20892,-8.22172 -11.53858,6.27226 0,0 z m 21.70162,0.5 c -4.56825,-5.99454 -4.9501,6.09461 0,0 z m -80.50874,-12.52754 c -6.12928,-9.96298 -24.97031,-39.24961 -32.15466,-21.59875 3.77495,6.77133 33.18994,45.04568 32.15466,21.59875 z m 94.83556,10.7681 c 14.02945,-2.99313 -5.2893,-5.09581 -3.2803,0.42694 z M 198.19479,343.25 c -0.56875,-27.96747 -36.51962,-39.42479 -35.64956,-67.91994 -0.99025,-10.75809 -6.37416,-43.928 -19.71274,-31.13296 7.99655,12.76456 -7.15775,41.4663 14.95633,39.66407 7.16131,-1.28356 11.55168,22.17064 20.58095,28.9603 7.16263,9.68995 17.55113,17.94888 19.82502,30.42853 z M 156,269.5 c 1.49538,-7.60042 0.97937,6.33476 0,0 z m -0.26853,-6.18347 c -4.80198,-5.78327 3.2466,-8.88403 0,0 z m -2.02416,-14.32778 c -0.47749,-8.67196 2.94351,5.38118 0,0 z M 320,345.16667 c -2.10007,-8.09297 -3.2905,6.45089 0,0 z m -34.79304,-4.71913 c 56.82138,-11.35221 91.36869,-82.70749 63.84347,-134.05798 -18.03382,-39.49374 -65.37971,-62.97417 -107.56473,-51.02408 -49.67091,10.70603 -85.53998,65.9261 -71.07504,115.49879 11.71138,46.22019 60.67705,80.85999 108.40472,71.01415 l 3.20961,-0.65225 z m -33.68385,-62.86942 c -21.96953,-10.73417 -29.66402,-46.43533 -5.49073,-59.16722 20.78782,-13.21068 44.6865,8.9272 45.1455,30.02767 -1.19037,25.974 -45.22301,33.80049 -51.1604,6.74394 -2.80061,-9.27716 -3.60581,-34.62388 -6.46328,-10.57383 -3.8526,20.559 23.11219,33.12647 32.60569,34.45311 -4.72115,1.00674 -10.35631,0.96465 -14.63678,-1.48367 z m 13.93279,-7.56135 c 23.42068,0.85967 30.51204,-35.3516 9.54389,-44.62144 -21.5689,-12.04014 -47.63084,20.05792 -27.60013,37.08539 3.99387,5.3806 11.05769,10.81411 18.05624,7.53605 z M 251,225.73693 c -7.00994,-3.44338 -3.89964,8.23727 0,0 z m 7,-3.21408 c 11.07592,-9.4441 -14.2683,6.95492 0,0 z M 260,219 c 2.12875,-4.22214 1.53362,4.13908 0,0 z m 10,-1.55968 c -0.88577,-5.2698 -3.28026,3.04736 0,0 z m 13,53.74114 c -0.29875,-5.59242 3.95968,1.61841 0,0 z M 290,266 c 1.99756,-4.76339 1.07077,4.0477 0,0 z m 3,-1.59609 c -1.77229,-7.1137 7.0801,-20.3227 3.78339,-5.91116 -0.45286,2.2449 -1.43673,4.96726 -3.78339,5.91116 z m -3.36454,-32.83752 c -6.01417,-9.65664 5.45002,4.10776 0,0 z m -5.09742,-7.66713 c -7.96052,-3.62902 0.0146,-4.44285 1.64646,-0.17982 z m 19.94413,117.30994 c 7.70408,-1.99881 31.12728,-21.8596 11.50719,-10.54599 -4.42399,2.33547 -12.11539,4.06596 -11.50719,10.54599 z m -87.8155,-4.69471 c -6.16963,-8.328 -15.38936,-8.05311 -3.25129,-0.33347 l 1.55937,0.85635 z m -39.77095,-0.42888 c 4.23465,-7.82439 -7.04601,2.12533 0,0 z m 171.50054,-0.67585 c 1.35222,-10.67704 -8.68597,5.12803 0,0 z M 129.64235,331 c 6.19857,-21.94623 -4.6418,-44.32797 -18.05017,-61.23164 -15.636092,14.2082 2.69913,37.39209 3.00231,54.69637 2.83845,5.18069 9.13639,9.01068 15.04786,6.53527 z m -7.80721,-8.73177 c -12.75368,-18.63739 16.62654,0.52317 0,0 z m -7.60851,-15.78908 c -1.05866,-14.81295 14.01287,8.50395 0.11116,0.0647 z M 112.2,289.8 c -4.98854,-13.93132 12.88845,3.75545 0,0 z m -31.537719,38.95 c -3.343393,2.80741 5.952495,4.11324 0,0 z m 116.880439,-7.70279 c -5.54932,-3.4273 -22.27867,-26.85091 -12.20107,-9.33147 2.79033,4.27407 6.45893,9.36787 12.20107,9.33147 z m 138.1122,-2.59034 c -1.63744,-6.56954 -3.01219,5.69494 0,0 z M 340,313.05902 c -0.87696,-6.60575 -3.15894,3.88415 0,0 z m 3,-5.22569 c 10.23721,-3.26789 -6.33527,-2.35397 0,0 z m -191.07899,-9.7024 c -9.87878,-13.8735 5.09154,16.59226 0,0 z M 352.25,295.16667 c -7.65008,0.20757 1.58076,8.03369 0,0 z m -177.61267,-3.23002 c 2.07747,-8.24639 -7.00375,-3.37384 0,0 z m 200.91729,-5.52489 c -7.48441,0.23265 5.41438,4.31673 0,0 z m -237.37824,-0.92147 c 9.38576,-14.48176 -26.309,-14.20109 -8.04644,-2.65142 2.35881,1.66659 5.25966,2.19917 8.04644,2.65142 z m -45.177086,-3.86273 c 1.153771,-13.38086 -15.564705,6.83662 -0.478171,0.2877 z M 169.5,280 c -0.56466,-4.14125 -2.40701,5.12582 0,0 z m -87.515313,-5.19098 c -2.580368,-6.80882 0.02987,7.85809 0,0 z m 86.588873,0.49122 c -0.94155,-11.51147 -2.61051,5.32628 0,0 z m 255.05917,-0.4104 c -1.67028,-13.96586 -17.67488,9.07292 -1.57611,0.60701 l 0.97144,-0.37413 z m -18.12861,-2.90281 c -6.29182,-13.03322 -13.28456,11.13135 -0.14354,0.10053 z M 362.36163,267.5 c 3.12762,-9.0435 -5.75311,5.0923 0,0 z M 111,265.5 c -2.47962,-4.96395 -1.5277,4.7975 0,0 z M 409,263 c 30.04691,7.43132 8.84321,-51.41772 -3.94518,-18.79782 C 403.80759,250.61367 404.55116,257.90724 409,263 Z m 9.98469,1.80902 c 3.85489,-3.27952 -7.15381,1.85372 0,0 z M 136,251.95528 c 6.77535,-13.91743 -18.61929,-25.40876 -12.27331,-3.88612 -1.01997,10.93475 8.76774,17.98086 12.27331,3.88612 z m 267.57729,-3.60408 c 4.32034,-25.88189 -31.03068,5.43022 -7.54039,12.17115 6.87077,2.76511 11.7025,-7.18905 7.54039,-12.17115 z M 83,262.55902 c -0.795939,-5.03916 -3.015459,2.88097 0,0 z m 62.25,-1.48471 c -1.38212,-10.04814 -7.0368,6.93723 0,0 z m 216.93333,-1.29098 c -4.68022,-0.80778 4.80252,3.9023 0,0 z M 382.65457,257.75 c -3.30652,-13.48154 5.78232,-46.73218 -12.01519,-45.96145 -11.45239,2.35235 -10.10411,-22.70302 -20.94072,-28.30254 -15.56773,-19.65173 14.39507,18.87173 12.64916,-5.2606 -2.10767,-17.36139 -30.94246,-27.83568 -30.02025,-19.38135 -5.24252,-8.38569 0.91602,18.75689 8.87567,19.32478 19.33243,17.57912 26.03294,43.27141 27.77206,68.27509 1.50169,6.2443 6.67131,12.35654 13.67927,11.30607 z m -5.86474,-3.00497 c -10.00935,-12.00059 6.81725,0.98349 0,0 z m -6.34262,-18.65962 c -5.5863,-11.81693 5.816,-7.96256 0,0 z M 164,256.44098 c -2.36377,-3.85709 -0.51232,5.43667 0,0 z m 199.57524,-5.19907 c -3.58657,3.71718 4.32574,4.1886 0,0 z M 165,250.5 c -2.08523,-5.71469 -1.25577,4.80405 0,0 z m 264.17041,-2.48973 c -1.46397,-8.48947 -0.74423,12.17288 0,0 z m -264.72234,-5.31529 c -2.00729,-8.07431 -0.86529,8.05316 0,0 z M 100.5,240 c -0.564655,-4.14126 -2.407005,5.12581 0,0 z m 64.5,-4.05902 c -3.42098,-3.47312 0.33579,4.47077 0,0 z m 198.04402,-2.49337 c 0.88069,-12.98849 -5.0213,-4.2772 -1.4425,2.3721 z M 385,233.84617 c -5.52774,-6.74322 -2.59532,8.27105 0,0 z M 81.984687,227.69098 c -4.435164,-2.37268 2.653736,9.55123 0,0 z M 414,229 c -2.12875,-4.22214 -1.53362,4.13908 0,0 z m -280.93426,-3.03518 c -2.16132,-12.87775 -14.27256,8.29313 0,0 z M 114.75,224.09883 c -0.72462,-13.95605 -15.434961,7.36716 -0.72159,0.0333 z m 290.61496,-0.60751 c 4.67,-14.67007 -27.80792,-11.4433 -9.95892,-1.14696 2.71749,1.91401 7.09141,4.27617 9.95892,1.14696 z m 16.2569,0.19381 c 1.25179,-19.48669 -1.07455,-54.2753 -21.31273,-58.9353 -14.90598,14.92826 5.52863,38.06735 10.02318,54.13765 2.90175,3.02316 7.01305,5.1252 11.28955,4.79765 z M 419.75,218.31067 c -10.10968,-4.31304 6.4191,8.6e-4 0,0 z m -7.91486,-7.9836 c -10.81403,-18.58684 16.2114,2.76457 0,0 z m -7.86003,-16.89254 c 4.10275,-23.0963 16.31594,13.92034 0,0 z m -2.04468,-16.01835 c -1.76269,-14.48879 11.17025,6.99766 0,0 z M 94.630544,217.3359 c -1.012164,-15.72657 -15.619029,12.07632 -0.248915,0.42855 z m 27.939476,-7.10438 c 1.75425,-14.70401 21.67042,-40.88328 -1.85283,-46.92052 -9.43529,13.64193 -24.984563,45.2545 -3.88479,53.16212 2.81412,-0.75675 5.79755,-2.98776 5.73762,-6.2416 z m -11.18269,-2.66455 c 0.1511,-13.71958 10.28299,7.57193 0,0 z m 3.22768,-15.03179 c 1.00887,-18.70403 13.41841,11.83127 0,0 z m 6.05166,-15.20185 c -4.5485,-17.27947 14.4165,3.75231 0,0 z M 356.83635,209.75 c -2.80792,-12.20806 -0.54258,9.84207 0,0 z M 154,207.61124 c -2.57008,-8.89842 -5.38259,6.50027 0,0 z m 214.54112,-1.67777 c -1.85386,-4.78128 -2.37828,4.64291 0,0 z M 380.2,202.8 c 6.02271,-13.45486 -19.34213,-13.13836 0,0 z M 352.19577,200 c 1.37688,-13.82191 -11.73132,-1.40381 0,0 z m -170.52746,-6.75 c 9.43925,-11.74278 -1.31194,-3.98497 -2.98015,2.3508 z M 368,194 c -1.99756,-4.76339 -1.07077,4.0477 0,0 z m -24.51746,-5.97175 c 2.032,-10.11651 -9.19369,-1.80808 0,0 z m 24.24348,-2.65612 c 2.25836,-11.27159 -6.40714,6.32948 0,0 z m -186.97185,-4.34707 c 20.60292,-20.02425 47.04039,-39.47537 77.35027,-36.64175 11.11583,0.49198 19.37846,-18.54371 4.63688,-5.85382 7.24575,-5.83126 10.6702,-18.48537 -3.10726,-13.13049 -17.35182,-0.1247 -41.62244,4.45538 -40.4326,25.70067 -9.73763,6.58468 -9.86974,-1.68345 -12.09314,-4.58221 -18.10553,-1.41694 -34.23704,22.15741 -39.61107,34.08931 3.02091,4.08429 9.96818,4.26418 13.25692,0.41829 z M 168.57725,179.875 c 4.21069,-5.18953 5.21249,5.49173 0,0 z m 5.50608,-0.15797 c 2.09437,-7.16103 7.46785,2.91321 0,0 z M 180.5,176 c 2.33304,-5.13644 2.02492,4.10338 0,0 z m 4.50463,-2.80637 c 2.42275,-9.94323 11.65648,-2.55511 0,0 z m 9.14094,-9.13035 c 1.35714,-6.64326 8.40413,-0.12655 0,0 z m 31.43275,-18.71978 c 8.12023,-8.39402 21.46353,-0.41406 3.9369,0.4646 l -2.00974,0.11774 z M 249,139.91152 c 2.51209,-4.74325 4.04607,3.63019 0,0 z M 200.23294,173.5 c 14.27967,-16.13989 37.36172,-17.21076 55.56417,-26.41484 -23.97457,1.39488 -49.09405,11.3089 -62.93185,31.8057 2.40624,1.96428 4.71381,-5.11006 7.36768,-5.39086 z M 338.5,182 c -0.56466,-4.14125 -2.40701,5.12582 0,0 z m -2.30548,-2.76849 c -0.30504,-7.63397 -7.2096,0.83376 0,0 z m -4.20983,-6.31484 c -4.45661,-2.46237 0.44798,4.88748 0,0 z M 80.683114,172.8125 c -3.596177,1.14752 6.320716,5.57446 0,0 z M 325.5,168 c -2.33304,-5.13644 -2.02492,4.10338 0,0 z m -4.52006,-3.52417 c -1.93147,-7.0546 -6.57421,0.8699 0,0 z M 182.5,160.9863 c -5.15497,-9.61304 -6.03811,9.15633 0,0 z m -18.28303,-6.24255 c 3.29035,-20.4254 -40.3742,-12.85847 -18.205,1.31237 5.08329,2.36881 18.50609,10.03148 18.205,-1.31237 z M 351.66286,160.75 c 6.28755,-11.71389 -9.07945,2.59313 0,0 z M 310,158.88197 c -4.20596,-2.48249 1.65553,6.79324 0,0 z m 65.3794,0.83076 c 19.41879,14.02799 13.56027,-34.67107 0.78374,-12.88279 -4.45686,4.44974 -16.90667,17.42071 -0.78374,12.88279 z m 51.4453,-0.10439 c 15.43492,-22.9541 -31.24719,-12.06996 -7.0387,1.19864 2.49706,0.41401 4.72176,-0.35562 7.0387,-1.19864 z M 113,158.31849 c 15.16074,-16.51334 -27.002746,-23.90319 -12.672,-2.18559 2.35236,4.34178 9.05084,5.61699 12.672,2.18559 z m 7.12266,-8.62887 c -4.97359,-15.71166 -3.12971,17.6273 0,0 z M 128,157.87883 c 24.62646,-1.37951 -9.71251,-31.3855 -6.26413,-6.6059 -0.28174,3.30549 2.35776,7.79874 6.26413,6.6059 z m 266.58115,-8.61229 c -3.45202,-14.24259 -2.57395,17.16965 0,0 z m 6.3531,7.62707 c 3.81039,1.20574 9.30859,-9.44152 8.13713,-0.69605 15.13744,-18.73166 -29.21663,-12.81187 -8.13713,0.69605 z m -114.41894,-5.91839 c -6.46772,-9.8682 -22.38882,1.57364 -5.02785,-0.11316 1.66281,0.30725 3.35044,0.094 5.02785,0.11316 z M 177,147.01366 c 10.45559,-16.09134 -18.91963,-45.44661 -22.33208,-17.08942 -0.0204,10.88114 11.33189,21.73218 22.33208,17.08942 z m 188.93972,1.72622 c 23.04229,-8.71811 -14.00909,-40.7865 -13.56289,-13.30294 -4.34532,8.48008 5.36378,17.0965 13.56289,13.30294 z M 164,148.55902 c -0.79593,-5.03916 -3.01546,2.88097 0,0 z M 222,144 c -1.43409,-6.54209 -1.00595,4.65707 0,0 z m -10.6053,-7.02387 c 13.6282,-9.72987 -13.04927,2.59564 -3.02488,0.99675 z m 94.66855,-0.55235 c 0.90672,-12.39032 -8.68944,6.59656 0,0 z M 255,124.37756 c -1.13918,-8.94536 -3.77967,5.82157 0,0 z m -27.48368,-3.19458 c 15.4579,8.27355 12.01059,-27.266564 1.39302,-7.60911 -1.52498,1.58784 -7.27514,7.79174 -1.39302,7.60911 z M 289.50025,117.75 c 12.35703,-21.629666 -16.6925,-0.42093 0,0 z m 81.05862,0.82142 c -0.1264,-9.00879 -6.26855,-28.737094 -14.27671,-14.61491 -4.88983,11.06977 2.00057,22.58497 14.27671,14.61491 z m -180.728,-2.22486 c 15.14977,-8.70131 45.19398,-1.90522 48.06529,-24.623139 -18.99581,-6.675229 -54.30277,-0.418453 -58.17234,21.324069 0.61247,5.00076 6.57629,6.90932 10.10705,3.29907 z M 190.2,108.8 c -6.32211,-13.427358 12.54265,3.51809 0,0 z m 14.50801,-3.71716 c -6.29908,-23.366289 17.14538,8.11323 0,0 z m 16.99935,-5.37548 c -5.55111,-16.220113 12.12999,6.53438 0,0 z M 233,100.11803 c -1.12484,-7.810038 4.33574,2.50567 0,0 z M 347.62506,117.4653 C 352.4594,93.03809 320.2545,91.021741 303.74554,88.071163 c -19.94908,11.076182 7.01639,25.097997 20.06729,24.397337 7.83122,2.11049 15.71556,4.21205 23.81223,4.9968 z m -14.1002,-9.38698 c -0.65948,-14.342239 11.09272,7.40451 0,0 z m -14.14644,-1.09372 c -17.62051,-21.165928 22.77109,-4.50087 0,0 z m -17.17589,-8.95098 c 6.99693,-18.532434 5.70559,12.22155 0,0 z m -35.32888,18.50139 c 24.87513,-3.0104 -20.81596,-22.761718 -11.94809,-1.8242 3.42163,2.22406 8.02417,3.8456 11.94809,1.8242 z m -93.29858,-4.47438 c 16.26184,-13.176332 -13.84335,-45.63992 -16.47855,-19.661631 8.08485,5.18207 11.85543,4.508908 3.57009,10.639981 -2.5899,8.6425 5.64386,14.80025 12.90846,9.02165 z M 167.5,103 c 3.06418,-5.289003 3.37264,4.51113 0,0 z m 115.29097,-6.914854 c -1.25857,-11.316295 -1.58029,12.966914 0,0 z M 179,99 c -1.50869,-3.593225 -1.39208,4.67726 0,0 z m 114.59415,-1.519091 c 5.58295,-22.63162 -20.6535,3.490291 0,0 z M 372.0448,96 C 384.29327,77.158412 338.08462,82.897307 357.29379,96.503284 362.1286,97.838428 367.27482,97.329765 372.0448,96 Z M 246.27938,92.960337 c -3.29719,-4.413747 2.72666,8.560833 0,0 z M 257,83 c -1.50869,-3.593226 -1.39208,4.677266 0,0 z m 2.5,0 c -0.56465,-4.141265 -2.40701,5.125829 0,0 z M 354,428.94098 c 2.89932,-2.98633 0.45012,4.56801 0,0 z m -108,-1.03282 c 1.53233,-7.9308 5.97141,4.00919 0,0 z M 285.5,423 c 2.23261,-5.1044 0.82725,4.41497 0,0 z m -22.86163,-9.5 c 0.12604,-4.76433 2.90422,6.36587 0,0 z M 437.5,160 c 2.23261,-5.1044 0.82725,4.41497 0,0 z M 262.0575,84.430717 c 4.77383,-8.110674 0.69908,5.275241 0,0 z m 0.49675,-3.342932 c 3.54611,-3.044153 1.21565,4.907261 0,0 z M 179,73.5 c 1.21565,-4.634012 1.46433,6.354315 0,0 z m 0.66667,-6.166667 c -6.4274,-4.122099 4.98882,-0.315589 0,0 z m 97,0 c -6.4274,-4.122099 4.98882,-0.315589 0,0 z M 254,66 c 1.99756,-4.763384 1.07077,4.047702 0,0 z"
       id="path764" />
  </g>
</svg>
