<?xml version="1.0" encoding="UTF-8" standalone="no"?>
<!-- Created with Inkscape (http://www.inkscape.org/) -->

<svg
   version="1.1"
   id="svg257"
   width="200.02357"
   height="166.70105"
   viewBox="0 0 200.02358 166.70105"
   sodipodi:docname="title_edge.svg"
   inkscape:version="1.2.1 (9c6d41e410, 2022-07-14)"
   xmlns:inkscape="http://www.inkscape.org/namespaces/inkscape"
   xmlns:sodipodi="http://sodipodi.sourceforge.net/DTD/sodipodi-0.dtd"
   xmlns="http://www.w3.org/2000/svg"
   xmlns:svg="http://www.w3.org/2000/svg">
  <defs
     id="defs261" />
  <sodipodi:namedview
     id="namedview259"
     pagecolor="#ffffff"
     bordercolor="#666666"
     borderopacity="1.0"
     inkscape:showpageshadow="2"
     inkscape:pageopacity="0.0"
     inkscape:pagecheckerboard="0"
     inkscape:deskcolor="#d1d1d1"
     showgrid="false"
     inkscape:zoom="5.6002052"
     inkscape:cx="93.567999"
     inkscape:cy="86.693251"
     inkscape:current-layer="g263" />
  <g
     inkscape:groupmode="layer"
     inkscape:label="Image"
     id="g263"
     transform="translate(-16.847905,-3.2411705)">
    <path
       style="fill:#000000;stroke-width:0.32"
       d="M 46.527933,169.61531 C 29.073917,166.75002 15.383091,149.49406 17.615672,131.74308 19.008746,119.17812 21.304957,106.70204 21.110764,93.997271 21.652508,76.638441 19.235218,59.385735 16.848022,42.260986 16.811262,27.87496 25.424348,13.517047 38.069604,6.7449542 53.9374,-0.28716215 70.958306,7.0236298 87.27394,7.7717466 c 23.24524,1.9350854 46.76963,1.9809913 69.93324,-0.8455516 14.61599,-2.3640196 31.56621,-7.71644003 44.87127,1.6019414 11.18448,7.5328666 16.40878,21.6803586 14.29379,34.8083546 -2.51489,20.079135 -6.12658,40.522501 -2.32317,60.684489 0.18933,14.99929 6.73296,30.77091 -0.77551,45.05719 -6.12377,14.52056 -22.72723,23.75768 -38.28939,20.03943 -24.84998,-5.00301 -50.32266,-6.48329 -75.610522,-4.76945 -14.145372,0.20726 -28.020542,2.93377 -41.91411,5.21932 -3.63007,0.36998 -7.30014,0.44217 -10.931605,0.0478 z m 13.295437,-0.93574 c 15.42473,-3.63887 31.343758,-5.32808 47.15787,-5.05818 8.28093,-1.62113 16.76036,-1.28393 25.06262,-0.51814 15.2826,0.75242 30.4713,2.78626 45.48385,5.67569 19.69896,3.31096 39.24017,-14.97931 37.80683,-34.74388 0.71893,-10.66273 -2.65586,-21.03966 -3.10405,-31.63554 -1.72193,-7.311005 -1.32705,-14.522143 -1.07587,-22.558874 0.78448,-14.560279 3.79812,-28.902853 4.67175,-43.436063 C 216.11521,18.835391 200.15713,2.1037236 182.13987,3.9180997 167.9678,5.1343043 154.10358,8.9240363 139.81375,9.2530521 112.73439,11.177642 85.552456,8.9612694 58.797287,4.7317289 48.3838,3.4224098 36.801706,5.7925334 29.972323,14.403807 19.630214,23.60383 15.201846,38.533179 19.11163,51.850542 c 1.954427,16.808033 3.881274,33.755081 2.462229,50.650608 0.541594,12.28306 -3.947366,24.18295 -3.29581,36.41959 2.183962,18.35995 20.605767,32.99521 39.037926,30.00198 l 1.25802,-0.11591 z"
       id="path494" />
  </g>
</svg>
