<?xml version="1.0" encoding="UTF-8" standalone="no"?>
<!DOCTYPE svg PUBLIC "-//W3C//DTD SVG 1.1//EN" "http://www.w3.org/Graphics/SVG/1.1/DTD/svg11.dtd">
<svg width="100%" height="100%" viewBox="0 0 86 71" version="1.1" xmlns="http://www.w3.org/2000/svg" xmlns:xlink="http://www.w3.org/1999/xlink" xml:space="preserve" xmlns:serif="http://www.serif.com/" style="fill-rule:evenodd;clip-rule:evenodd;stroke-linejoin:round;stroke-miterlimit:2;">
    <g transform="matrix(0.391139,0,0,0.391139,-3.62795,1.56857)">
        <g id="Image">
            <path id="path494" d="M58,174.871C53.93,175.286 45.69,174.88 45.664,174.876C25.514,171.568 9.768,151.611 12.321,131.119C13.69,118.788 15.971,106.547 15.78,94.079C15.779,93.996 15.779,93.914 15.782,93.831C16.314,76.774 13.913,59.824 11.568,42.997C11.534,42.758 11.517,42.516 11.517,42.275C11.475,25.98 21.23,9.716 35.553,2.045C35.669,1.983 35.788,1.924 35.91,1.871C44.766,-2.054 53.93,-2.112 63.17,-0.949C71.308,0.076 79.498,2.078 87.518,2.446C87.584,2.449 87.65,2.453 87.716,2.459C110.565,4.361 133.688,4.416 156.461,1.646C163.907,0.436 171.944,-1.498 179.812,-1.975C188.727,-2.516 197.418,-1.228 205.084,4.124C217.93,12.793 224.046,28.996 221.651,44.089C219.205,63.595 215.593,83.448 219.288,103.033C219.345,103.336 219.376,103.645 219.38,103.954C219.473,111.311 221.148,118.855 221.856,126.314C222.667,134.874 222.261,143.313 218.098,151.356C210.941,168.043 191.786,178.559 173.844,174.326C149.486,169.431 124.519,167.988 99.734,169.667C99.64,169.674 99.546,169.678 99.452,169.679C85.571,169.882 71.959,172.585 58.325,174.828C58.217,174.846 58.109,174.86 58,174.871ZM56.461,163.66C56.583,163.641 90.562,158.055 106.518,158.282C115.084,156.691 123.84,156.997 132.419,157.784C147.891,158.552 163.269,160.608 178.476,163.532C194.936,166.251 211.215,150.936 210.017,134.421C209.999,134.173 209.999,133.924 210.015,133.676C210.71,123.376 207.449,113.354 206.927,103.127C205.227,95.534 205.565,88.025 205.826,79.674C205.827,79.634 205.829,79.594 205.831,79.554C206.614,65.023 209.614,50.709 210.497,36.201C210.666,21.664 197.586,7.721 182.674,9.223C182.648,9.225 182.622,9.228 182.596,9.23C168.356,10.452 154.421,14.229 140.065,14.58C112.653,16.515 85.137,14.289 58.046,10.011C49.441,8.948 39.788,10.607 34.149,17.717C33.958,17.958 33.746,18.182 33.516,18.387C24.687,26.241 20.889,38.98 24.227,50.349C24.312,50.638 24.372,50.935 24.407,51.235C26.39,68.284 28.31,85.475 26.914,102.613C27.357,114.698 23.001,126.417 23.593,138.466C25.531,153.873 40.97,166.176 56.461,163.66Z" style="fill-rule:nonzero;"/>
        </g>
    </g>
</svg>
