<?xml version="1.0" encoding="UTF-8" standalone="no"?>
<!-- Created with Inkscape (http://www.inkscape.org/) -->

<svg
   version="1.1"
   id="svg257"
   width="199.25589"
   height="166.0076"
   viewBox="0 0 199.25589 166.00759"
   sodipodi:docname="title_filled.svg"
   inkscape:version="1.2.1 (9c6d41e410, 2022-07-14)"
   xmlns:inkscape="http://www.inkscape.org/namespaces/inkscape"
   xmlns:sodipodi="http://sodipodi.sourceforge.net/DTD/sodipodi-0.dtd"
   xmlns="http://www.w3.org/2000/svg"
   xmlns:svg="http://www.w3.org/2000/svg">
  <defs
     id="defs261" />
  <sodipodi:namedview
     id="namedview259"
     pagecolor="#ffffff"
     bordercolor="#666666"
     borderopacity="1.0"
     inkscape:showpageshadow="2"
     inkscape:pageopacity="0.0"
     inkscape:pagecheckerboard="0"
     inkscape:deskcolor="#d1d1d1"
     showgrid="false"
     inkscape:zoom="5.6002052"
     inkscape:cx="41.427053"
     inkscape:cy="16.160122"
     inkscape:current-layer="g263" />
  <g
     inkscape:groupmode="layer"
     inkscape:label="Image"
     id="g263"
     transform="translate(-52.215966,-70.480796)">
    <path
       style="fill:#000000;stroke-width:0.32"
       d="m 82.269866,236.26548 c -13.176155,-2.39953 -24.772998,-12.2081 -28.32799,-25.29108 -3.320115,-13.7314 2.468152,-27.47 2.268248,-41.30603 1.169291,-19.19987 -0.556341,-38.47929 -3.784332,-57.37664 -1.635591,-14.362982 6.487234,-27.941472 17.516265,-36.475833 12.165997,-7.75961 27.03706,-4.432803 40.275013,-2.183131 26.42346,3.394512 53.32162,3.724249 79.79687,0.814211 14.48149,-1.763997 30.25507,-7.771154 44.09722,-0.340649 12.53424,6.926071 19.45018,22.084582 16.79355,36.124952 -2.53532,17.73919 -5.12488,35.74159 -3.38747,53.67088 0.71644,8.38568 1.52082,15.36552 2.71215,23.72239 1.65521,7.27608 1.64334,14.31151 0.0438,21.5403 -3.81991,17.13853 -21.6643,30.46733 -39.35652,26.67381 -18.68766,-3.83333 -37.82145,-5.60281 -56.89457,-5.8407 -18.56418,0.84004 -37.25151,1.14563 -55.5018,5.11334 -5.317569,1.43139 -10.788213,1.31804 -16.250434,1.15418 z"
       id="path501" />
  </g>
</svg>
